<svg xmlns="http://www.w3.org/2000/svg" viewBox="0 0 1752.48 1700.64"><defs><style>.cls-1{fill:#feffff;}.cls-2{fill:#3668cc;}.cls-3{fill:#bcccee;}.cls-4{fill:#3768cc;}.cls-5{fill:#3869cd;}.cls-6{fill:#fcfdfd;}</style></defs><title>Asset 2</title><g id="Layer_2" data-name="Layer 2"><g id="Layer_2-2" data-name="Layer 2"><path class="cls-1" d="M1753.56,65.72V1701.56h-239a63.93,63.93,0,0,0-.87-7q-20.43-87.16-40.95-174.29-35.74-151.88-71.49-303.76-30.54-129.84-61-259.69-32.84-139.63-65.73-279.24c-13.07-55.52-26.5-111-39.08-166.59-13.74-60.74-34.55-118.69-65.2-173A612.63,612.63,0,0,0,860,68.64a42,42,0,0,1-4-2.08l.31-.91h886.2c3.12,0,6.24-.09,9.35-.14Zm-188.8,123.09-69,489.47-1.41.18q-32.07-142.26-124.69-254.7c-62.07-75-137.85-131.69-228.15-171.54,1.12,2.1,1.4,2.76,1.79,3.34,13.09,19.51,26.13,39.06,39.35,58.48a20.11,20.11,0,0,0,6.22,5.7A585.26,585.26,0,0,1,1289,394.6a563,563,0,0,1,124.6,168.59q62,128.58,55.26,271.31a556.26,556.26,0,0,1-71.27,247.95A14,14,0,0,0,1396,1094c2.71,9.94,4.82,20,7.2,30.06,1.23,5.18,2.49,10.35,4.06,16.87,2.26-3.19,3.69-5,5-7a622.68,622.68,0,0,0,36.88-65.87,596.54,596.54,0,0,0,52.66-171.9c.31-2.11.34-5,1.67-6.06,2.44-2,2.45-4.46,2.81-7q5.08-36,10.13-71.91c4.61-32.51,9.31-65,13.9-97.52,4.08-29,8-57.93,12.1-86.89,4.05-28.72,8.28-57.41,12.33-86.12,5-35.84,10-71.69,15-107.53q7.69-54.83,15.51-109.64,6.92-48.76,13.87-97.52c1.47-10.38,2.76-20.78,4.22-31.81Z" transform="translate(-1.08 -0.92)"/><path class="cls-1" d="M428.76,1701.56H1.08q0-850.32,0-1700.64H1753.56q0,13,0,25.92l-1.7.21c-3.12,0-6.24-.13-9.36-.13q-546,0-1092.07.06c-15.11,0-30.22.52-45.32,1.05-32.2,1.14-64,5.61-95.47,12.33a599.93,599.93,0,0,0-175.29,67C232.67,166,153.62,246.83,98.27,350.33Q30.08,477.86,28.06,622.82a620,620,0,0,0,9,115.31c4.72,27.22,12.23,53.73,19.69,80.26q39,138.79,78.13,277.57,33.21,118,66.4,236c.62,2.19,1.49,4.3,2.32,6.66l36.92-10.38c-.9-3.49-1.55-6.24-2.32-9q-44.67-158.84-89.33-317.69a54,54,0,0,1-1-7l.17-.19c1.6,1.72,3.35,3.32,4.77,5.17a611.57,611.57,0,0,0,556.75,234.14A612.53,612.53,0,0,0,902,1178c2.14-1,4.26-3.22,7.87-1.24-1.86,2.25-3.4,4.31-5.12,6.19q-114.42,124.59-228.88,249.15-101,110-202.06,220Q451.23,1676.76,428.76,1701.56Zm43.83-462.27c.34,1,.37,1.56.66,1.86,1.49,1.56,3,3.09,4.57,4.57A612.58,612.58,0,0,0,623.27,1348a678.07,678.07,0,0,0,65.27,28.33c4.22,1.6,6.95,1.15,9.89-2.4,4.89-5.9,10.3-11.37,15.5-17,2.86-3.1,5.72-6.19,9-9.74-1.83-.78-2.64-1.19-3.5-1.47-61.52-20.4-118.32-49.77-169.91-89.12a17.83,17.83,0,0,0-7.18-2.8c-16.2-3.26-32.46-6.26-48.66-9.53C486.71,1242.84,479.82,1241,472.59,1239.29Z" transform="translate(-1.08 -0.92)"/><path class="cls-1" d="M1475.64,1701.56H482c1.45-1.86,2.78-3.84,4.38-5.57q76.4-83.29,152.84-166.54Q731.53,1429,823.83,1328.51q96.66-105.25,193.28-210.54c28.37-31,57-61.7,84.61-93.31,43.95-50.31,77.83-106.94,102.68-168.93A595.69,595.69,0,0,0,1241,719.24a38.1,38.1,0,0,1,1.67-5c1,3.65,1.78,5.86,2.31,8.12q31,131.6,61.94,263.21,45.18,192.16,90.33,384.32,32.75,139.31,65.51,278.61C1467,1666.18,1471.36,1683.86,1475.64,1701.56Zm-146.26-520-2.15-1.08a44.67,44.67,0,0,1-3.29,4.69q-78.83,87-185.23,136.57c-75.13,34.8-154.16,51.95-236.83,52.77a521.4,521.4,0,0,1-76.73-5.32c-4.62-.64-8,.09-11.32,3.92-7.48,8.75-15.52,17-23.27,25.53a32.27,32.27,0,0,0-2.73,4.2A622.51,622.51,0,0,0,883.53,1413a606.74,606.74,0,0,0,93.31-4.9,594.9,594.9,0,0,0,132.46-32.23q126.85-46.74,222.43-142.46c10-10,8.22-6,5.42-19.16C1334.82,1203.32,1332,1192.47,1329.38,1181.58Z" transform="translate(-1.08 -0.92)"/><path class="cls-2" d="M1475.64,1701.56c-4.28-17.7-8.66-35.38-12.83-53.1q-32.8-139.3-65.51-278.61-45.17-192.16-90.33-384.32Q1276,853.91,1245,722.32c-.53-2.26-1.27-4.47-2.31-8.12a38.1,38.1,0,0,0-1.67,5,595.69,595.69,0,0,1-36.65,136.49c-24.85,62-58.73,118.62-102.68,168.93-27.62,31.62-56.24,62.36-84.61,93.31q-96.54,105.36-193.28,210.54Q731.55,1429,639.26,1529.45,562.81,1612.69,486.42,1696c-1.59,1.74-2.92,3.71-4.38,5.57H428.76q22.54-24.73,45.09-49.45,101-110,202.06-220,114.43-124.58,228.88-249.15c1.73-1.88,3.27-3.93,5.12-6.19-3.62-2-5.73.22-7.87,1.24a612.53,612.53,0,0,1-192.53,55.81A610.84,610.84,0,0,1,152.77,999.65c-1.42-1.85-3.17-3.45-4.77-5.17l-.49-1.07-.58.69.89.57a54,54,0,0,0,1,7q44.62,158.86,89.33,317.69c.77,2.73,1.42,5.49,2.32,9l-36.92,10.38c-.83-2.36-1.71-4.47-2.32-6.66q-33.22-118-66.4-236Q95.81,957.18,56.73,818.39c-7.46-26.53-15-53-19.69-80.26a620,620,0,0,1-9-115.31q2.11-144.77,70.21-272.5c55.35-103.5,134.4-184.34,236.09-243a599.93,599.93,0,0,1,175.29-67c31.46-6.72,63.27-11.2,95.47-12.33,15.1-.53,30.21-1,45.32-1.05q546-.1,1092.07-.06c3.12,0,6.24.09,9.36.13q0,19.23,0,38.46c-3.12,0-6.24.14-9.35.14H856.32l-.31.91a42,42,0,0,0,4,2.08,612.63,612.63,0,0,1,310.17,269.3c30.65,54.32,51.46,112.27,65.2,173,12.58,55.63,26,111.07,39.08,166.59q32.86,139.62,65.73,279.24,30.54,129.84,61,259.69,35.72,151.88,71.49,303.76,20.5,87.14,40.95,174.29a63.93,63.93,0,0,1,.87,7ZM1208.57,632.79a545.89,545.89,0,0,0-12.82-120q-33-149.13-136.28-261.77A572.33,572.33,0,0,0,510.75,79.9Q360,114.39,246.88,219.78A561.75,561.75,0,0,0,115.2,404.2,553.7,553.7,0,0,0,67.64,601.65a565.52,565.52,0,0,0,296.43,528.62c70.17,38,145,60.14,224.42,67a571,571,0,0,0,107.08-.85,557.47,557.47,0,0,0,102.89-20c115.43-34.3,211.29-98.2,286.41-192.21C1166.84,881.63,1207.4,764,1208.57,632.79ZM910.88,1175.06l-.48-.46a4.17,4.17,0,0,0-.42.89c0,.11.27.29.41.44Z" transform="translate(-1.08 -0.92)"/><path class="cls-3" d="M1751.87,65.52q0-19.23,0-38.46l1.7-.21V65.72Z" transform="translate(-1.08 -0.92)"/><path class="cls-2" d="M1564.76,188.81l38.47,5.32c-1.46,11-2.75,21.43-4.22,31.81q-6.88,48.77-13.87,97.52-7.78,54.81-15.51,109.64c-5,35.84-9.93,71.7-15,107.53-4,28.72-8.27,57.41-12.33,86.12-4.09,29-8,57.93-12.1,86.89-4.58,32.51-9.28,65-13.9,97.52q-5.1,36-10.13,71.91c-.36,2.53-.37,5-2.81,7-1.33,1.1-1.36,4-1.67,6.06a596.54,596.54,0,0,1-52.66,171.9,622.68,622.68,0,0,1-36.88,65.87c-1.26,2-2.7,3.83-5,7-1.57-6.51-2.84-11.68-4.06-16.87-2.37-10-4.49-20.13-7.2-30.06a14,14,0,0,1,1.59-11.53,556.26,556.26,0,0,0,71.27-247.95q6.61-142.66-55.26-271.31A563,563,0,0,0,1289,394.6a585.26,585.26,0,0,0-100.08-74.86,20.11,20.11,0,0,1-6.22-5.7c-13.22-19.42-26.26-39-39.35-58.48-.39-.58-.67-1.24-1.79-3.34,90.3,39.85,166.08,96.55,228.15,171.54S1473,583.62,1494.37,678.46l1.41-.18Z" transform="translate(-1.08 -0.92)"/><path class="cls-2" d="M472.59,1239.29c7.23,1.71,14.12,3.55,21.09,5,16.2,3.27,32.46,6.27,48.66,9.53a17.83,17.83,0,0,1,7.18,2.8c51.59,39.35,108.39,68.72,169.91,89.12.85.28,1.66.7,3.5,1.47-3.28,3.55-6.15,6.64-9,9.74-5.2,5.65-10.61,11.12-15.5,17-2.94,3.56-5.67,4-9.89,2.4A678.07,678.07,0,0,1,623.27,1348a612.58,612.58,0,0,1-145.44-102.27c-1.57-1.48-3.09-3-4.57-4.57C473,1240.85,472.93,1240.29,472.59,1239.29Z" transform="translate(-1.08 -0.92)"/><path class="cls-2" d="M1329.38,1181.58c2.61,10.89,5.44,21.74,7.78,32.69,2.8,13.14,4.59,9.17-5.42,19.16q-95.68,95.46-222.43,142.46a594.9,594.9,0,0,1-132.46,32.23,606.74,606.74,0,0,1-93.31,4.9,622.51,622.51,0,0,1-95.71-10.16,32.27,32.27,0,0,1,2.73-4.2c7.75-8.52,15.8-16.78,23.27-25.53,3.28-3.83,6.7-4.56,11.32-3.92a521.4,521.4,0,0,0,76.73,5.32c82.66-.82,161.7-18,236.83-52.77q106.59-49.37,185.23-136.57a44.67,44.67,0,0,0,3.29-4.69Z" transform="translate(-1.08 -0.92)"/><path class="cls-1" d="M1208.57,632.79c-1.16,131.23-41.73,248.84-123.7,351.43-75.12,94-171,157.92-286.41,192.21a557.47,557.47,0,0,1-102.89,20,571,571,0,0,1-107.08.85c-79.38-6.88-154.25-29.06-224.42-67A565.46,565.46,0,0,1,67.64,601.65,553.7,553.7,0,0,1,115.2,404.2,561.75,561.75,0,0,1,246.88,219.78Q360,114.6,510.75,79.9A571.83,571.83,0,0,1,1059.47,251q103.11,112.58,136.28,261.77A545.89,545.89,0,0,1,1208.57,632.79Zm-777,502.88.73.78a3.39,3.39,0,0,0,.29-.47,8.12,8.12,0,0,0-.81-.55,88.79,88.79,0,0,0-4.37-7.94,568,568,0,0,1-72.63-147.07,558.67,558.67,0,0,1-23.75-111.53,511.08,511.08,0,0,1-3.19-66.75c.05-2.52-.18-5-.3-8.13H289c0,2.66-.06,5,0,7.37.42,15.09.56,30.2,1.36,45.27,2.28,43.25,9.92,85.61,21.82,127.22,12.57,44,30.34,85.77,52.18,125.9A22.59,22.59,0,0,0,374.81,1110c11.91,5.63,23.59,11.77,35.54,17.3C417.25,1130.51,424.51,1132.92,431.61,1135.67Zm599.9-879.54a12.29,12.29,0,0,0-1.19-2.46c-16.14-14.68-32.24-29.4-48.54-43.9a13.35,13.35,0,0,0-7.11-2.82c-14.54-1.55-29.08-3.37-43.67-4.07-59.74-2.85-118.83,2-177,16.13q-133.52,32.4-240.42,118.77a611.45,611.45,0,0,0-93,93.91c-1.49,1.87-4,3.44-3.4,7,14.6,0,29-.13,43.37.09,3.68.06,5.47-1.86,7.66-4.23,12.86-13.89,25.19-28.39,39-41.27,51.65-48.12,111-84.25,176.32-110.64a568.35,568.35,0,0,1,181.57-40.88c50.25-2.86,100.18.43,149.51,11C1020,253.85,1025.35,254.88,1031.51,256.13ZM618.91,741.68V623.16c9.71,0,18.77.16,27.82-.08a10.37,10.37,0,0,1,8.7,3.93c5.91,6.62,12.29,12.83,18.11,19.52q35.42,40.72,70.58,81.65c4,4.7,7.77,9.68,11.66,14.55,14.7-2.63,29.08-2.31,44.91-.46-4.24-5.21-7.4-9.38-10.86-13.3q-46.17-52.37-92.41-104.68c-1.37-1.55-2.57-3.27-4.33-5.53,5.54-1.12,10.23-2,14.87-3,17.26-4,33.48-10.32,47-22.21,16.24-14.29,22.83-32.31,19.2-53.61-3-17.49-14.41-28.22-30.25-34.68-16.69-6.81-34.31-8.88-52.14-9-34.31-.19-68.63-.09-102.94-.07a45.55,45.55,0,0,0-5.29.59c-1.52,16.66-.83,240.4.54,244.89Zm414.44-60.55-1.87.81c-1.75-1.55-3.55-3-5.23-4.67q-56.91-55-113.79-110.12-34.64-33.55-69.29-67.09a13.62,13.62,0,0,0-6.55-3.74c-3.65-.62-7.49-.17-11.08-.17-1.49,10.46-1.06,240.76.19,245.23h20.73V548.64c5-1.66,6.85,1.74,9.12,4q84.8,84.19,169.52,168.46c5.27,5.24,11,10.26,15.21,16.27,4.54,6.4,9.8,6.24,16.09,4.93v-245h-23.06ZM382,740.63H545.76c-4-7-2.27-13.65-.39-20.36-43,2.56-85.08,4.43-127.62,3.6V618.48c38.52.68,76.72-1.63,114.34,2.47V602.56c-18.47.55-37.56,1.35-56.65,1.63s-38.24.06-57.21.06c-1.53-9.35-1.18-85.86.45-91.57,13.7,0,27.6-.27,41.47.08,13.66.34,27.3,1.71,41,1.89s27.36,2.72,40.56,2.39V496.57H382Zm-33.4-232.49c-2.19-.89-3.49-1.49-4.83-2-25.32-8.69-51.25-14.38-78.11-14.74-27.14-.36-53.53,3.76-78.59,14.68-27.75,12.1-49.71,30.61-63.37,58.06-11.27,22.64-13.68,46.76-11.08,71.54,1.82,17.36,6.75,33.86,15.7,48.95,17.55,29.58,44.26,46.57,76.91,55C236,747.55,267,747,298,741.78a128.62,128.62,0,0,0,38.84-12.6c1.94-1,4.45-2.89,4.77-4.7,1.12-6.42,1.4-13,2-19.53-1,0-1.32-.08-1.5,0a17.23,17.23,0,0,0-1.86,1.07c-31.18,21.13-65.54,29.32-102.64,23.31-34.87-5.65-60.54-24.69-74.88-57.33-12.94-29.44-14-60.08-5.47-90.83,7.29-26.14,21.94-47.25,45.86-61.16,15.69-9.12,32.72-13.27,50.75-14.16,30.62-1.52,57.66,7.53,81.36,26.85,1.6,1.3,3.29,2.5,5.93,4.5Z" transform="translate(-1.08 -0.92)"/><path class="cls-1" d="M147.82,994.67l-.89-.57.58-.69.49,1.07Z" transform="translate(-1.08 -0.92)"/><path class="cls-1" d="M910.88,1175.06l-.49.87c-.15-.15-.44-.33-.41-.44a4.16,4.16,0,0,1,.42-.89Z" transform="translate(-1.08 -0.92)"/><path class="cls-2" d="M1031.51,256.13c-6.17-1.25-11.54-2.28-16.89-3.42-49.33-10.56-99.25-13.86-149.51-11A568.35,568.35,0,0,0,683.55,282.6C618.21,309,558.87,345.12,507.23,393.23c-13.82,12.88-26.15,27.38-39,41.27-2.2,2.37-4,4.29-7.66,4.23-14.38-.22-28.77-.09-43.37-.09-.59-3.51,1.91-5.08,3.4-7a611.45,611.45,0,0,1,93-93.91Q620.35,251.24,754,219c58.2-14.12,117.29-19,177-16.13,14.59.7,29.13,2.52,43.67,4.07a13.35,13.35,0,0,1,7.11,2.82c16.29,14.51,32.4,29.22,48.54,43.9A12.29,12.29,0,0,1,1031.51,256.13Z" transform="translate(-1.08 -0.92)"/><path class="cls-4" d="M618.91,741.68H584c-1.36-4.49-2.06-228.23-.54-244.89a45.55,45.55,0,0,1,5.29-.59c34.31,0,68.63-.12,102.94.07,17.84.1,35.45,2.16,52.14,9,15.84,6.46,27.27,17.19,30.25,34.68,3.63,21.3-3,39.31-19.2,53.61-13.51,11.89-29.72,18.21-47,22.21-4.64,1.07-9.33,1.91-14.87,3,1.77,2.27,3,4,4.33,5.53q46.2,52.34,92.41,104.68c3.46,3.92,6.62,8.1,10.86,13.3-15.83-1.85-30.21-2.17-44.91.46-3.89-4.87-7.61-9.85-11.66-14.55q-35.21-40.9-70.58-81.65c-5.82-6.69-12.2-12.91-18.11-19.52a10.37,10.37,0,0,0-8.7-3.93c-9,.24-18.1.08-27.82.08Zm-2.21-231v97.56c14.05,2,48.27,1.94,61.38-.43a167.8,167.8,0,0,0,22.35-5.13c12.63-4.13,23.13-11.5,30.13-23.14,15.19-25.25,4.7-55.28-22.85-65.34A77.72,77.72,0,0,0,681,509.36q-21.93,0-43.85.37C630.44,509.84,623.78,510.32,616.7,510.65Z" transform="translate(-1.08 -0.92)"/><path class="cls-2" d="M1033.35,681.13V497.28h23.06v245c-6.29,1.31-11.56,1.48-16.09-4.93-4.25-6-9.94-11-15.21-16.27q-84.71-84.27-169.52-168.46c-2.27-2.25-4.1-5.66-9.12-4V741.39H825.74c-1.25-4.48-1.68-234.77-.19-245.23,3.59,0,7.43-.46,11.08.17a13.62,13.62,0,0,1,6.55,3.74q34.74,33.45,69.29,67.09,56.88,55.08,113.79,110.12c1.68,1.62,3.48,3.11,5.23,4.67Z" transform="translate(-1.08 -0.92)"/><path class="cls-5" d="M382,740.63V496.57H541.68V517c-13.2.33-26.83-2.2-40.56-2.39s-27.3-1.55-41-1.89c-13.88-.35-27.77-.08-41.47-.08-1.63,5.72-2,82.23-.45,91.57,19,0,38.09.22,57.21-.06s38.18-1.08,56.65-1.63v18.39c-37.62-4.1-75.81-1.79-114.34-2.47V723.87c42.54.83,84.59-1,127.62-3.6-1.88,6.72-3.57,13.4.39,20.36Z" transform="translate(-1.08 -0.92)"/><path class="cls-4" d="M348.59,508.13l-7.39,29.09c-2.64-2-4.33-3.2-5.93-4.5-23.7-19.32-50.74-28.37-81.36-26.85-18,.89-35.07,5-50.75,14.16-23.92,13.91-38.57,35-45.86,61.16-8.58,30.75-7.48,61.39,5.47,90.83,14.35,32.63,40,51.68,74.88,57.33,37.1,6,71.46-2.18,102.64-23.31a17.23,17.23,0,0,1,1.86-1.07c.18-.09.46,0,1.5,0-.6,6.55-.88,13.12-2,19.53-.32,1.81-2.83,3.68-4.77,4.7A128.62,128.62,0,0,1,298,741.78C267,747,236,747.55,205.23,739.65c-32.65-8.4-59.36-25.39-76.91-55-9-15.09-13.88-31.58-15.7-48.95-2.6-24.78-.19-48.9,11.08-71.54,13.66-27.44,35.62-46,63.37-58.06,25.06-10.93,51.45-15,78.59-14.68,26.86.36,52.79,6,78.11,14.74C345.11,506.64,346.4,507.24,348.59,508.13Z" transform="translate(-1.08 -0.92)"/><path class="cls-2" d="M431.61,1135.67c-7.1-2.76-14.36-5.16-21.26-8.35-12-5.53-23.63-11.67-35.54-17.3a22.59,22.59,0,0,1-10.48-10.28c-21.85-40.13-39.61-81.93-52.18-125.9-11.9-41.61-19.54-84-21.82-127.22-.79-15.07-.94-30.18-1.36-45.27-.07-2.35,0-4.71,0-7.37h38.64c.12,3.09.35,5.61.3,8.13a511.08,511.08,0,0,0,3.19,66.75,558.67,558.67,0,0,0,23.75,111.53,568,568,0,0,0,72.63,147.07,88.79,88.79,0,0,1,4.37,7.94Z" transform="translate(-1.08 -0.92)"/><path class="cls-2" d="M431.83,1135.42a8.13,8.13,0,0,1,.81.55,3.39,3.39,0,0,1-.29.47l-.73-.78Z" transform="translate(-1.08 -0.92)"/><path class="cls-6" d="M616.7,510.65c7.08-.33,13.75-.81,20.42-.92q21.92-.35,43.85-.37a77.72,77.72,0,0,1,26.74,4.81c27.55,10.06,38,40.1,22.85,65.34-7,11.64-17.5,19-30.13,23.14a167.8,167.8,0,0,1-22.35,5.13c-13.11,2.37-47.33,2.46-61.38.43Z" transform="translate(-1.08 -0.92)"/></g></g></svg>